<?xml version="1.0" encoding="UTF-8"?>
<svg width="588px" height="90px" viewBox="0 0 588 90" version="1.1" xmlns="http://www.w3.org/2000/svg" xmlns:xlink="http://www.w3.org/1999/xlink">
    <!-- Generator: Sketch 64 (93537) - https://sketch.com -->
    <title>Slice 1</title>
    <desc>Created with Sketch.</desc>
    <g id="Page-1" stroke="none" stroke-width="1" fill="none" fill-rule="evenodd">
        <path d="M76.5099451,75.22725 L81.9864157,46.11225 L50.0691608,46.086 L47.0599843,60.6735 L57.0982588,60.6735 L56.3219451,65.33475 C51.8792784,67.46475 46.6948863,68.58975 40.8802196,68.58975 C34.6543373,68.58975 30.0425725,66.70725 26.3992784,62.646 C22.9135529,58.7535 21.6991216,53.2935 22.8136314,46.5885 C24.0319059,39.546 27.2832,33.8235 32.5790431,29.5185 C37.9555922,25.266 44.1507294,23.046 50.9684549,23.046 L85.187749,23.046 L88.4275137,3.77475 L83.4352784,3.77475 L48.8201412,3.77475 C36.6143373,3.77475 28.5860235,6.19725 18.743749,14.391 C8.78233725,22.53225 2.69480784,32.89725 0.677160784,45.17475 C-1.40197647,57.7185 1.32665098,68.29725 8.7246902,76.6185 C16.0343373,84.92475 26.2724549,89.16975 39.0316706,89.16975 C53.7047686,89.16975 66.0104941,84.831 75.4646118,76.1535 L76.5099451,75.22725 Z" id="Fill-1" fill="#003B71"></path>
        <polygon id="Fill-4" fill="#003B71" points="326.595569 3.9225 302.068667 3.9225 281.196588 39.46875 306.030941 39.46875"></polygon>
        <polygon id="Fill-6" fill="#003B71" points="259.933663 3.9225 236.486682 3.9225 245.29131 39.46875 269.084173 39.46875"></polygon>
        <polygon id="Fill-8" fill="#003B71" points="346.513012 34.11675 348.104071 39.47175 371.001482 39.47175 360.801796 3.92175 341.13262 3.92175 319.211365 39.47175 343.254031 39.47175"></polygon>
        <polygon id="Fill-10" fill="#003B71" points="134.314573 34.11675 135.847984 39.47175 158.745396 39.47175 148.576455 3.92175 128.899592 3.92175 106.916847 39.47175 130.944141 39.47175"></polygon>
        <polygon id="Fill-12" fill="#003B71" points="503.259592 3.9225 481.449788 3.9225 475.635122 39.46875 497.371906 39.46875"></polygon>
        <path d="M439.971961,36.592125 L439.145686,36.359625 C438.315569,36.082125 437.43549,35.834625 436.486235,35.594625 C426.882235,33.243375 423.988353,31.638375 423.219725,31.087125 C422.631725,30.622125 422.020667,29.950875 422.40498,27.937125 C422.712431,26.122125 423.496431,24.877125 425.08749,23.995875 C427.116667,22.874625 429.526314,23.013375 432.593137,23.013375 L468.737843,23.013375 L472.012196,3.775875 C472.012196,3.775875 440.413922,3.749625 435.075804,3.749625 C426.497922,3.749625 419.057608,4.207125 412.497373,8.493375 C405.610471,12.959625 401.425294,19.372125 400.045608,27.577125 C399.365373,31.972125 399.611333,35.958375 400.837294,39.472125 L449.483725,39.472125 L439.971961,36.592125 Z" id="Fill-14" fill="#003B71"></path>
        <polygon id="Fill-17" fill="#003B71" points="215.542353 3.9225 193.751765 3.9225 187.82949 39.46875 209.673882 39.46875"></polygon>
        <polygon id="Fill-19" fill="#003B71" points="272.810478 53.79675 270.735184 46.0605 246.853929 46.0605 257.299576 88.32675 277.856518 88.32675 302.241224 46.0605 277.330008 46.0605"></polygon>
        <polygon id="Fill-21" fill="#003B71" points="351.305788 50.79 336.217631 50.79 339.165318 46.0575 315.199514 46.0575 290.522729 88.3275 313.101161 88.3275 323.785082 71.01375 357.108925 71.01375 362.101161 88.3275 384.998573 88.3275 372.900376 46.0575 349.929945 46.0575"></polygon>
        <polygon id="Fill-23" fill="#003B71" points="139.107349 50.79 124.011506 50.79 126.901545 46.0575 102.904996 46.0575 76.8562118 88.3275 100.837388 88.3275 111.575114 71.01375 144.875898 71.01375 149.837388 88.3275 172.742486 88.3275 160.640447 46.0575 137.704604 46.0575"></polygon>
        <polygon id="Fill-25" fill="#003B71" points="467.549161 88.32675 489.343592 88.32675 496.299671 46.0605 474.509082 46.0605"></polygon>
        <path d="M407.748024,47.527125 C409.85022,49.098375 414.043082,51.254625 416.202925,52.158375 C419.196729,53.350875 423.589435,54.648375 429.30418,56.043375 C435.622298,57.595875 438.085749,59.024625 439.023475,59.684625 C439.549984,60.130875 440.107239,60.772125 439.807475,62.643375 C439.549984,64.394625 438.569984,65.707125 436.786769,66.892125 C434.780651,68.189625 425.864573,67.702125 422.463396,67.702125 L403.447553,67.702125 L394.935004,67.702125 L391.572259,88.327125 L396.410769,88.327125 L426.260416,88.327125 C435.472416,88.327125 443.508416,86.812125 450.03022,82.162125 C456.171553,77.793375 460.425906,71.249625 461.940102,63.764625 L461.993906,63.764625 L462.089984,63.138375 L462.089984,62.999625 L462.089984,62.984625 C463.035396,56.043375 461.794063,50.133375 458.573514,46.057125 L406.007082,46.057125 L407.748024,47.527125 Z" id="Fill-27" fill="#003B71"></path>
        <polygon id="Fill-29" fill="#003B71" points="179.753137 88.32675 237.108118 88.32675 240.563098 67.773 204.971804 67.773 208.553608 46.0605 186.736118 46.0605"></polygon>
        <path d="M578.95902,17.120625 C571.31502,8.491875 560.892431,3.920625 548.736588,3.920625 L513.118392,3.920625 L507.22302,39.470625 L529.032824,39.470625 L531.33102,25.996875 C533.102706,25.303125 535.254863,25.014375 538.344745,25.014375 C539.56302,25.014375 540.881216,25.063125 542.164824,25.126875 C543.659804,25.179375 545.166314,25.201875 546.726627,25.201875 C552.987098,25.201875 557.579647,27.088125 561.234471,31.149375 C564.578,34.921875 565.938471,37.768125 564.789373,44.720625 C563.601843,51.733125 560.365922,57.433125 555.023961,61.711875 C549.635882,66.039375 543.48302,68.221875 536.67298,68.221875 L524.282706,68.221875 L527.983647,46.059375 L506.181529,46.059375 L500.535961,79.798125 L499.075569,88.291875 C499.075569,88.291875 524.482549,88.325625 535.712196,88.325625 C547.933373,88.325625 559.036196,85.029375 568.943804,76.869375 C578.816824,68.724375 584.881294,58.336875 586.929686,46.089375 C588.897373,34.149375 586.614549,25.768125 578.95902,17.120625" id="Fill-31" fill="#003B71"></path>
    </g>
</svg>