<?xml version="1.0" encoding="UTF-8"?>
<svg width="453px" height="60px" viewBox="0 0 453 60" version="1.1" xmlns="http://www.w3.org/2000/svg" xmlns:xlink="http://www.w3.org/1999/xlink">
    <!-- Generator: Sketch 64 (93537) - https://sketch.com -->
    <title>Slice 1</title>
    <desc>Created with Sketch.</desc>
    <defs>
        <polygon id="path-1" points="0.825308434 1.83575 70.0191566 1.83575 70.0191566 56.57575 0.825308434 56.57575"></polygon>
        <polygon id="path-3" points="0 1.9335 13.1265157 1.9335 13.1265157 20.806 0 20.806"></polygon>
        <polygon id="path-5" points="1.74101687 1.0985 14.9089205 1.0985 14.9089205 20 1.74101687 20"></polygon>
    </defs>
    <g id="Page-1" stroke="none" stroke-width="1" fill="none" fill-rule="evenodd">
        <g id="Group-41">
            <polygon id="Fill-1" fill="#204797" points="86.087212 2.49925 75.516947 57.23925 86.087212 57.23925 96.6874289 2.49925"></polygon>
            <polygon id="Fill-2" fill="#204797" points="147.631641 2.49925 140.456822 40.33425 116.024316 2.49925 106.309039 2.49925 95.9865566 57.23925 106.401617 57.23925 113.606388 18.57925 138.847593 57.23925 147.637087 57.23925 158.231858 2.49925"></polygon>
            <g id="Group-40" transform="translate(0.000000, 0.664250)">
                <path d="M178.607255,47.90525 C183.029231,47.90525 187.110846,47.45275 190.642436,46.03275 C193.692075,44.81275 197.095689,42.52025 199.358412,39.93525 C200.85328,38.26525 202.514243,36.00025 203.331111,33.57025 C204.180653,31.00025 205.103713,28.27025 204.81781,25.28775 C204.575472,23.10025 204.014557,21.15775 203.116002,19.48275 C202.217448,17.80025 201.035713,16.35275 199.627978,15.18025 C197.86899,13.68775 195.704292,12.54275 193.076701,11.71275 C190.41099,10.91525 187.301448,10.51525 183.652773,10.51525 L176.241063,10.51525 L168.984557,47.90525 L178.607255,47.90525 Z M167.002292,1.83525 L183.475786,1.83525 C188.984195,1.83525 194.816629,1.85025 198.751207,3.12275 C202.685786,4.40025 205.828002,5.56275 208.469207,7.75775 C213.228822,11.71275 215.467039,14.75025 216.123255,21.44775 C216.539858,25.57775 215.565063,32.92775 214.296195,36.56775 C212.994653,40.22025 210.933424,43.47775 208.126123,46.34275 C204.85593,49.63525 200.725304,52.19025 195.67434,53.92525 C190.669665,55.73025 184.815448,56.57525 178.079014,56.57525 L156.723376,56.57525 L167.002292,1.83525 Z" id="Fill-3" fill="#204797"></path>
                <polygon id="Fill-5" fill="#204797" points="287.781048 1.83575 298.34859 1.83575 289.47741 47.90575 320.834229 47.90575 319.075241 56.57575 277.213506 56.57575"></polygon>
                <path d="M351.348858,57.4705 C344.331966,57.4705 338.709195,55.8505 334.567677,52.6105 C330.407099,49.378 328.038183,44.9705 327.488159,39.3855 C327.185918,36.468 327.349292,33.568 327.967388,30.7005 L333.462183,1.8355 L343.926255,1.8355 L338.170063,32.0405 C337.97946,32.928 337.848761,33.858 337.813364,34.853 C337.775243,35.8405 337.813364,36.893 337.895051,38.063 C338.20546,41.1705 339.550569,43.7305 341.845966,45.6805 C344.135918,47.663 347.343484,48.6255 351.506786,48.6255 C355.942376,48.6255 359.51481,47.248 362.26493,44.4705 C363.525629,43.178 364.674689,41.5855 365.559629,39.7055 C366.469075,37.833 367.179749,35.5805 367.664424,32.973 L373.679292,1.8355 L384.16787,1.8355 L377.85893,34.468 C376.508376,41.468 373.943412,46.858 370.185822,50.658 C367.98028,52.9005 365.3064,54.583 362.218641,55.7505 C359.139051,56.8905 355.490376,57.4705 351.348858,57.4705" id="Fill-7" fill="#204797"></path>
                <g id="Group-11" transform="translate(381.204819, 0.000000)">
                    <mask id="mask-2" fill="white">
                        <use xlink:href="#path-1"></use>
                    </mask>
                    <g id="Clip-10"></g>
                    <polygon id="Fill-9" fill="#204797" mask="url(#mask-2)" points="11.3928506 1.83575 22.0230193 1.83575 34.9948747 27.72575 58.0087542 1.83575 70.0194289 1.83575 59.446441 56.57575 48.7917663 56.57575 56.4049711 17.32325 32.6994771 43.14825 32.3727301 43.14825 18.8426819 17.46325 11.3166096 56.57575 0.825308434 56.57575"></polygon>
                </g>
                <path d="M263.042217,34.78025 L267.227301,12.99275 L242.25294,34.85275 L263.042217,34.78025 Z M266.015614,1.83525 L279.886024,1.83525 L269.400169,56.57525 L258.260819,56.57525 L261.038169,43.39275 L232.600289,43.44525 L217.926627,56.57525 L202.934386,56.57525 L266.015614,1.83525 Z" id="Fill-12" fill="#204797"></path>
                <polygon id="Fill-14" fill="#204797" points="47.5615639 25.0535 60.7294675 30.806 60.7294675 17.6635 47.5615639 11.9335"></polygon>
                <g id="Group-18" transform="translate(0.000000, 10.000000)">
                    <mask id="mask-4" fill="white">
                        <use xlink:href="#path-3"></use>
                    </mask>
                    <g id="Clip-17"></g>
                    <polygon id="Fill-16" fill="#ED3B3C" mask="url(#mask-4)" points="13.1265157 15.0535 -0.000544578313 20.806 -0.000544578313 7.6635 13.1265157 1.9335"></polygon>
                </g>
                <polygon id="Fill-19" fill="#204797" points="13.1265157 11.9335 13.1265157 25.0535 26.275359 30.806 26.275359 24.511 18.0794554 21.3635 18.0794554 14.101"></polygon>
                <polygon id="Fill-21" fill="#ED3B3C" points="44.3945687 13.3445 44.3945687 21.3645 34.4233398 25.167 34.4233398 30.8045 47.5612916 25.0545 47.5612916 11.9345"></polygon>
                <polygon id="Fill-23" fill="#ED3B3C" points="0 34.9145 0 48.0445 13.1270602 42.3145 13.1270602 35.9045 4.90392771 32.772"></polygon>
                <polygon id="Fill-25" fill="#204797" points="34.4244289 48.04425 34.4244289 40.01925 31.2468145 38.59925 31.2468145 51.75425 44.3956578 57.49925 44.3956578 51.82925 34.4244289 48.02925"></polygon>
                <g id="Group-29" transform="translate(16.337349, 37.500000)">
                    <mask id="mask-6" fill="white">
                        <use xlink:href="#path-5"></use>
                    </mask>
                    <g id="Clip-28"></g>
                    <polygon id="Fill-27" fill="#ED3B3C" mask="url(#mask-6)" points="9.93692048 3.286 9.93692048 10.5435 9.91241446 10.5285 1.74101687 13.6785 1.74101687 20.001 14.9089205 14.256 14.9089205 1.0985"></polygon>
                </g>
                <polygon id="Fill-30" fill="#204797" points="47.5615639 35.90575 47.5615639 42.31325 60.7294675 48.04325 60.7294675 34.91575 55.7846964 32.77075"></polygon>
                <polygon id="Fill-32" fill="#204797" points="31.2468145 15.6175 44.3956578 21.365 44.3956578 8.2375 31.2468145 2.475"></polygon>
                <polygon id="Fill-34" fill="#ED3B3C" points="31.2468145 15.6175 18.0789108 21.365 18.0789108 8.2375 31.2468145 2.475"></polygon>
                <polygon id="Fill-36" fill="#204797" points="13.1265157 35.90575 13.1265157 42.31325 26.275359 48.04325 26.275359 34.91575 21.3523711 32.77075"></polygon>
                <polygon id="Fill-38" fill="#ED3B3C" points="34.4244289 34.9145 34.4244289 48.0445 47.5623807 42.3145 47.5623807 35.9045 39.3637542 32.772"></polygon>
            </g>
        </g>
    </g>
</svg>