<?xml version="1.0" encoding="UTF-8"?>
<svg width="327px" height="93px" viewBox="0 0 327 93" version="1.1" xmlns="http://www.w3.org/2000/svg" xmlns:xlink="http://www.w3.org/1999/xlink">
    <!-- Generator: Sketch 64 (93537) - https://sketch.com -->
    <title>Slice 1</title>
    <desc>Created with Sketch.</desc>
    <g id="Page-1" stroke="none" stroke-width="1" fill="none" fill-rule="evenodd">
        <g id="kobrex-logo-color" fill-rule="nonzero">
            <polygon id="Fill-1" fill="#E1251B" points="46.0128 30.4544941 17.5941333 57.5970824 22.2714667 30.4544941 10.5354667 30.4544941 -0.000533333333 91.5584941 11.7408 91.5584941 14.9221333 73.0982588 26.2154667 62.8996706 37.2554667 91.5584941 52.4688 91.5584941 35.8021333 54.2540235 61.7834667 30.4544941"></polygon>
            <path d="M71.6250667,60.8952471 C70.4357333,68.4453647 70.6704,74.3437176 72.3157333,78.5987765 C74.0064,82.8453647 76.8624,84.9743059 80.9210667,84.9743059 C85.0144,84.9743059 88.5610667,82.8453647 91.5664,78.5987765 C94.5637333,74.3437176 96.6624,68.4453647 97.8597333,60.8952471 C99.0304,53.3592471 98.8357333,47.4552471 97.1744,43.2425412 C95.5237333,38.9959529 92.6384,36.8811294 88.5210667,36.8811294 C84.4464,36.8811294 80.8890667,38.9959529 77.9024,43.2425412 C74.9184,47.4552471 72.8410667,53.3592471 71.6250667,60.8952471 M89.7130667,29.3846588 C93.6810667,29.3846588 97.3317333,30.0623059 100.731733,31.4486588 C104.1504,32.8152471 106.969067,34.7578353 109.1984,37.2566588 C111.883733,40.2467765 113.705067,43.7338353 114.6944,47.7291294 C115.6624,51.7667765 115.793067,56.1771294 115.0304,61.0081882 C114.283733,65.7799529 112.769067,70.1451294 110.507733,74.1573647 C108.2384,78.1385412 105.307733,81.6284235 101.7104,84.6298353 C98.6730667,87.1145412 95.2277333,89.0288941 91.4357333,90.4011294 C87.6304,91.7790118 83.7210667,92.4679529 79.7370667,92.4679529 C75.7930667,92.4679529 72.1290667,91.7592471 68.7264,90.3728941 C65.3317333,89.0063059 62.5290667,87.0806588 60.3050667,84.6298353 C57.5984,81.5521882 55.7637333,78.0368941 54.7717333,74.0387765 C53.8277333,70.0434824 53.7210667,65.6274824 54.4464,60.8133647 C55.2197333,56.0924235 56.7344,51.7131294 58.9877333,47.6811294 C61.2597333,43.6350118 64.2010667,40.1366588 67.8064,37.1550118 C70.7770667,34.6703059 74.1770667,32.7785412 77.9957333,31.4232471 C81.8357333,30.0623059 85.7210667,29.3846588 89.7130667,29.3846588" id="Fill-2" fill="#E1251B"></path>
            <path d="M133.562667,63.6882824 L130.448,83.4784 L134.213333,83.4784 C138.402667,83.4784 141.517333,82.7160471 143.522667,81.1998118 C145.482667,79.6779294 146.754667,77.0944 147.341333,73.4972235 C147.872,70.1456941 147.376,67.7033412 145.949333,66.1024 C144.496,64.5042824 141.978667,63.6882824 138.402667,63.6882824 L133.562667,63.6882824 Z M137.613333,38.1099294 L134.730667,56.3019294 L138.245333,56.3019294 C142.101333,56.3019294 144.949333,55.6045176 146.754667,54.2238118 C148.576,52.8346353 149.728,50.4572235 150.248,47.1424 C150.765333,44.0308706 150.344,41.7466353 149.002667,40.3009882 C147.672,38.8468706 145.370667,38.1099294 142.101333,38.1099294 L137.613333,38.1099294 Z M113.738667,90.9748706 L123.285333,30.6219294 L149.125333,30.6219294 C155.298667,30.6219294 159.917333,32.0788706 163.016,35.0096941 C166.096,37.9461647 167.248,41.9584 166.432,47.0435765 C165.856,50.7169882 164.373333,53.6845176 162.021333,55.9518118 C159.685333,58.2332235 156.445333,59.7268706 152.421333,60.4384 C156.712,61.6609882 159.816,63.5527529 161.792,66.1136941 C163.754667,68.6887529 164.450667,71.7974588 163.866667,75.4341647 C163.064,80.5052235 160.768,84.3452235 156.992,86.9795765 C153.229333,89.6421647 148.090667,90.9748706 141.68,90.9748706 L113.738667,90.9748706 Z" id="Fill-5" fill="#E1251B"></path>
            <path d="M164.575733,90.9751529 L174.1064,30.6222118 L198.975733,30.6222118 C206.1304,30.6222118 211.519733,32.2485647 215.0504,35.5549176 C218.615733,38.8471529 219.9464,43.3422118 219.0264,49.0598588 C218.357067,53.2697412 216.719733,56.6636235 214.0744,59.3685647 C211.463733,62.0000941 207.853067,63.8918588 203.261067,64.9986824 L212.925067,90.9751529 L195.055733,90.9751529 L186.0104,60.2664471 L189.6024,60.2664471 C193.549067,60.2664471 196.6264,59.3855059 198.8504,57.5840941 C201.029067,55.7911529 202.399733,53.0777412 202.981067,49.4410353 C203.599733,45.5840941 203.0504,42.7182118 201.381067,40.8885647 C199.6504,39.0278588 196.733067,38.1102118 192.5064,38.1102118 L188.469067,38.1102118 L180.0904,90.9751529 L164.575733,90.9751529 Z" id="Fill-7" fill="#E1251B"></path>
            <polygon id="Fill-9" fill="#E1251B" points="216.6512 90.9751529 226.189867 30.6222118 261.8832 30.6222118 260.5872 38.7398588 240.888533 38.7398588 238.112533 56.2965647 256.7872 56.2965647 255.504533 64.4170353 236.816533 64.4170353 233.8992 82.8462118 254.669867 82.8462118 253.3952 90.9751529"></polygon>
            <polygon id="Fill-11" fill="#E1251B" points="289.716267 48.0264471 283.614933 30.6222118 265.9776 30.6222118 277.9456 63.1182118"></polygon>
            <polygon id="Fill-13" fill="#E1251B" points="281.521067 72.0349176 288.2784 90.9751529 305.881067 90.9751529 293.355733 57.0843294"></polygon>
            <polygon id="Fill-15" fill="#B97727" points="322.9872 19.6672 266.4592 90.9754353 256.2592 90.9754353 326.493867 0.82296471"></polygon>
        </g>
    </g>
</svg>