<?xml version="1.0" encoding="UTF-8"?>
<svg width="511px" height="80px" viewBox="0 0 511 80" version="1.1" xmlns="http://www.w3.org/2000/svg" xmlns:xlink="http://www.w3.org/1999/xlink">
    <!-- Generator: Sketch 64 (93537) - https://sketch.com -->
    <title>Group 18</title>
    <desc>Created with Sketch.</desc>
    <g id="Page-1" stroke="none" stroke-width="1" fill="none" fill-rule="evenodd">
        <g id="Group-18" transform="translate(0.000000, -2.000000)">
            <polygon id="Fill-1" fill="#221F1F" points="101.628085 11.3365241 59.1471435 11.3365241 48.74752 66.2812138 92.1922259 66.2812138 94.2221553 55.5842483 63.4358965 55.5842483 65.4567906 44.1950069 91.9693553 44.1950069 94.2221553 33.2634207 67.1222965 33.2634207 69.5618259 22.218869 99.9776376 22.218869"></polygon>
            <polygon id="Fill-2" fill="#221F1F" points="315.519096 11.3365241 273.071285 11.3365241 262.63552 66.2812138 306.089261 66.2812138 308.089073 55.5842483 277.326908 55.5842483 279.371896 44.1950069 305.890485 44.1950069 308.089073 33.2634207 281.040414 33.2634207 283.455849 22.218869 313.892744 22.218869"></polygon>
            <g id="Group-17" transform="translate(0.000000, 0.824938)">
                <path d="M100.707388,65.4556966 L113.158024,65.4556966 L120.946447,21.9263172 L131.297882,21.9263172 C131.297882,21.9263172 139.264,21.5526621 139.264,27.8323862 C139.264,34.1555586 133.969318,37.5300414 130.367247,37.3794207 C126.837459,37.2288 118.612329,37.3794207 118.612329,37.3794207 L118.401506,38.798731 L132.029741,65.4556966 L146.706071,65.4556966 L136.228141,46.2341793 C136.228141,46.2341793 151.564047,40.7278345 151.711624,28.7940414 C151.853176,16.8834207 147.5584,13.1381793 138.601412,10.5110069 L110.408282,10.5110069 L100.707388,65.4556966 Z" id="Fill-3" fill="#221F1F"></path>
                <polygon id="Fill-5" fill="#221F1F" points="149.825054 65.4556966 162.233525 65.4556966 166.200019 44.4701793 193.42336 44.4701793 195.387031 33.7819034 168.341384 33.7819034 170.570089 21.6424552 201.293101 21.6424552 203.542889 10.5110069 159.998795 10.5110069"></polygon>
                <polygon id="Fill-7" fill="#221F1F" points="208.089751 10.5115862 220.826504 10.5115862 210.463021 65.4562759 197.952151 65.4562759"></polygon>
                <polygon id="Fill-9" fill="#221F1F" points="218.980894 65.4556966 229.055247 10.5110069 241.171576 10.5110069 233.030776 54.4285241 261.781082 54.4285241 259.597553 65.4556966"></polygon>
                <path d="M365.970673,11.3092966 L363.997967,21.6412966 L337.521544,21.6412966 C337.521544,21.6412966 333.133402,21.7919172 332.624414,26.2786759 C332.172649,30.7654345 337.626955,31.4461241 337.626955,31.4461241 C337.626955,31.4461241 349.306579,33.6475034 354.077214,37.3550897 C358.850861,41.0916414 358.564744,46.2388138 358.332838,48.0433655 C358.161167,49.8595034 356.977544,57.8134345 349.893873,61.596331 C342.873449,65.3908138 340.189967,65.3126069 336.527661,65.4545379 C332.874391,65.6051586 311.406532,65.4545379 311.406532,65.4545379 L313.894249,54.7488828 L340.656791,54.8097103 C340.656791,54.8097103 346.150249,53.7872276 346.038814,49.584331 C345.951473,45.3901241 340.48512,44.7239172 340.48512,44.7239172 C340.48512,44.7239172 326.314767,42.1372966 322.610296,37.5491586 C318.938955,32.9726069 320.724932,26.7681931 320.724932,26.7681931 C320.724932,26.7681931 322.188649,18.2784 329.928885,14.4346759 C332.121449,13.3600552 334.654344,12.1492966 336.38912,11.8770207 C340.982061,11.1702621 343.746861,11.2426759 348.394014,11.3092966 C354.938579,11.4048828 365.970673,11.3092966 365.970673,11.3092966" id="Fill-11" fill="#221F1F"></path>
                <path d="M39.2896753,29.7806069 C37.9614871,37.4825379 30.9320282,37.9836414 30.9320282,37.9836414 L17.5899106,37.9836414 L20.7853929,21.580469 L33.3474635,21.580469 C33.3474635,21.580469 40.5877459,22.0728828 39.2896753,29.7806069 M51.8908988,23.8977103 C50.9933929,11.2310897 35.5611106,10.5127448 35.5611106,10.5127448 L10.3616753,10.5127448 C10.3616753,10.5127448 0.00120470588,64.5739862 0.00120470588,65.4545379 L12.5753224,65.4545379 L15.7436988,48.8717793 C15.7436988,48.8717793 16.6592753,48.6950897 30.3808753,48.8717793 C44.1175341,49.0600552 52.8516518,36.5585379 51.8908988,23.8977103" id="Fill-13" fill="#221F1F"></path>
                <path d="M485.589835,68.4371172 L469.693741,68.4371172 L475.419106,37.8437379 L457.143718,58.7626345 L446.406776,37.6960138 L440.994635,68.4371172 L425.586447,68.4371172 L425.273224,69.0598759 L425.378635,68.4371172 L425.273224,68.4371172 L425.423812,68.0866345 L435.347576,14.6771172 L452.0448,14.6771172 L461.318024,35.0920138 L478.424847,14.5380828 L495.113035,14.5380828 L485.589835,68.4371172 Z M422.083765,69.0598759 L378.916141,69.0598759 L388.851953,14.6771172 L404.760094,14.6771172 L397.275859,55.6517379 L424.547388,55.6517379 L422.083765,69.0598759 Z M505.431341,2.0916 L384.436706,2.0916 C380.238306,2.0916 379.657035,6.63628966 379.657035,6.63628966 C379.657035,6.63628966 367.579859,68.8310483 366.793788,75.2671862 C365.971576,81.7525655 370.630776,81.0834621 370.630776,81.0834621 L493.296941,81.0834621 C497.600753,81.0834621 498.103718,76.4373931 498.103718,76.4373931 C498.103718,76.4373931 510.578447,9.51835862 510.578447,5.56746207 C510.578447,1.60208276 505.431341,2.0916 505.431341,2.0916 L505.431341,2.0916 Z" id="Fill-15" fill="#881C20"></path>
            </g>
        </g>
    </g>
</svg>